<?xml version="1.0" encoding="UTF-8" standalone="no"?>
<!DOCTYPE svg PUBLIC "-//W3C//DTD SVG 1.1//EN" "http://www.w3.org/Graphics/SVG/1.1/DTD/svg11.dtd">
<svg width="100%" height="100%" viewBox="0 0 500 500" version="1.1" xmlns="http://www.w3.org/2000/svg" xmlns:xlink="http://www.w3.org/1999/xlink" xml:space="preserve" xmlns:serif="http://www.serif.com/" style="fill-rule:evenodd;clip-rule:evenodd;stroke-linejoin:round;stroke-miterlimit:2;">
    <g transform="matrix(1.15358,0,0,1.15358,-69.1775,-41.6938)">
        <path d="M471.728,135.832C471.728,92.773 436.769,57.814 393.71,57.814L159.657,57.814C116.598,57.814 81.639,92.773 81.639,135.832L81.639,369.886C81.639,412.945 116.598,447.903 159.657,447.903L393.71,447.903C436.769,447.903 471.728,412.945 471.728,369.886L471.728,135.832Z" style="fill:rgb(245,186,156);"/>
        <clipPath id="_clip1">
            <path d="M471.728,135.832C471.728,92.773 436.769,57.814 393.71,57.814L159.657,57.814C116.598,57.814 81.639,92.773 81.639,135.832L81.639,369.886C81.639,412.945 116.598,447.903 159.657,447.903L393.71,447.903C436.769,447.903 471.728,412.945 471.728,369.886L471.728,135.832Z"/>
        </clipPath>
        <g clip-path="url(#_clip1)">
            <g transform="matrix(1.2413,0,0,1.2413,59.3414,-237.666)">
                <path d="M275.095,123.888C386.425,123.888 476.811,214.274 476.811,325.604C476.811,436.933 195.1,718.433 256.627,625.65C278.627,592.473 333.17,376.237 10.975,286.671C-96.287,256.853 163.766,123.888 275.095,123.888Z" style="fill:rgb(239,144,95);"/>
            </g>
        </g>
    </g>
    <g transform="matrix(0.842072,0,0,0.842072,6.06761,-43.039)">
        <path d="M289.681,187.679C378.164,187.679 450,259.515 450,347.998C450,436.48 378.164,508.316 289.681,508.316C201.199,508.316 129.362,436.48 129.362,347.998C129.362,259.515 201.199,187.679 289.681,187.679ZM289.681,197.298C372.855,197.298 440.381,264.824 440.381,347.998C440.381,431.171 372.855,498.697 289.681,498.697C206.508,498.697 138.981,431.171 138.981,347.998C138.981,264.824 206.508,197.298 289.681,197.298Z" style="fill:white;"/>
    </g>
</svg>
